# xmcd CD database file
#
# Track frame offsets:
#	150
#	40645
#	112378
#	133293
#	164265
#	194157
#	233875
#	243460
#
# Disc length: 3554 seconds
#
# Revision: 0
# Processed by: cddbd v1.5.2PL0 Copyright (c) Steve Scherf et al.
# Submitted via: Feurio! 1.68 - http://www.feurio.com
#
DISCID=770de008
DTITLE=B.B. King - Hammersmith Odeon   London, UK   10-78
DYEAR=1900
DGENRE=
TTITLE0=Caldonia
TTITLE1=Why I Sing The Blues
TTITLE2=Three O'clock Blues
TTITLE3=It's My Own Fault Baby
TTITLE4=Rock Me Baby
TTITLE5=Sweet Sixteen
TTITLE6=Don't Answer The Door
TTITLE7=Nobody Loves Me But My Mother
EXTD=
EXTT0=
EXTT1=
EXTT2=
EXTT3=
EXTT4=
EXTT5=
EXTT6=
EXTT7=
PLAYORDER=
